PathFileType	4	(X/Y/Z)	/Users/itak/Documents/Research/Walk-IL/dataset/trc/00345_00011.trc
DataRate	CameraRate	NumFrames	NumMarkers	Units	OrigDataRate	OrigDataStartFrame	OrigNumFrames
100.000000	100.000000	4	55	mm	100.000000	367	735
Frame#	Time	RPSI			LPSI			L3			STRN			T10			C7			CLAV			RBAK			LBAK			LSHO			LUPA			LAEL			LAOL			LWTS			LWPS			LFRA			LIFD			LHPS			LHTS			RSHO			RUPA			RAEL			RAOL			RWTS			RWPS			RFRA			RIFD			RHTS			RHPS			RBHD			LFHD			RFHD			LBHD			LHIP			RHIP			RASI			LASI			LKNE			LTHI			LANK			LTIP			LTOE			LMT1			LMT5			LHEE			RKNE			RTHI			RANK			RTIP			RTOE			RMT1			RMT5			RHEE			*53			*54			
		X1	Y1	Z1	X2	Y2	Z2	X3	Y3	Z3	X4	Y4	Z4	X5	Y5	Z5	X6	Y6	Z6	X7	Y7	Z7	X8	Y8	Z8	X9	Y9	Z9	X10	Y10	Z10	X11	Y11	Z11	X12	Y12	Z12	X13	Y13	Z13	X14	Y14	Z14	X15	Y15	Z15	X16	Y16	Z16	X17	Y17	Z17	X18	Y18	Z18	X19	Y19	Z19	X20	Y20	Z20	X21	Y21	Z21	X22	Y22	Z22	X23	Y23	Z23	X24	Y24	Z24	X25	Y25	Z25	X26	Y26	Z26	X27	Y27	Z27	X28	Y28	Z28	X29	Y29	Z29	X30	Y30	Z30	X31	Y31	Z31	X32	Y32	Z32	X33	Y33	Z33	X34	Y34	Z34	X35	Y35	Z35	X36	Y36	Z36	X37	Y37	Z37	X38	Y38	Z38	X39	Y39	Z39	X40	Y40	Z40	X41	Y41	Z41	X42	Y42	Z42	X43	Y43	Z43	X44	Y44	Z44	X45	Y45	Z45	X46	Y46	Z46	X47	Y47	Z47	X48	Y48	Z48	X49	Y49	Z49	X50	Y50	Z50	X51	Y51	Z51	X52	Y52	Z52	X53	Y53	Z53	X54	Y54	Z54	X55	Y55	Z55	

368	3.67	515.2586059570312	970.5687866210938	-622.65673828125	478.5607604980469	960.9625854492188	-498.7002563476562	500.4317626953125	1028.230834960938	-564.745849609375	264.0464782714844	1208.88916015625	-612.31005859375	500.9347839355469	1147.498291015625	-556.6287231445312	445.4271850585938	1392.90234375	-542.7371826171875	298.9649658203125	1335.00244140625	-590.452880859375	514.2747802734375	1259.136352539062	-602.9717407226562	432.8901672363281	1352.36572265625	-444.7353820800781	336.7977600097656	1365.230224609375	-410.8528442382812	350.4743347167969	1249.771362304688	-338.5741271972656	352.7989196777344	1048.09326171875	-312.79296875	422.9393005371094	1037.63330078125	-359.7057495117188	287.9556274414062	793.54931640625	-349.162841796875	320.0605773925781	792.6702270507812	-286.7018432617188	347.0378723144531	943.5662231445312	-298.00732421875	303.8852233886719	634.2776489257812	-339.3958435058594	331.5433654785156	723.3631591796875	-283.7052001953125	282.17578125	715.9784545898438	-325.9048767089844	434.6451110839844	1390.482666015625	-712.2063598632812	465.7338562011719	1336.223388671875	-776.0784301757812	489.5897521972656	1089.1337890625	-875.9002685546875	496.7807922363281	1057.48779296875	-784.8980712890625	391.8424377441406	859.9645385742188	-936.6130981445312	450.4071960449219	864.986328125	-986.3828735351562	475.5311279296875	1028.256469726562	-910.4734497070312	402.4316101074219	695.276123046875	-986.8331298828125	381.361328125	766.3087768554688	-985.2105102539062	444.8928833007812	782.4298095703125	-1011.235961914062	392.4038391113281	1606.172729492188	-632.7099609375	207.1754913330078	1590.9189453125	-539.3793334960938	229.9552459716797	1599.359497070312	-637.6904296875	386.9111022949219	1593.153686523438	-489.2721862792969	364.1307678222656	903.86181640625	-426.8417663574219	472.66943359375	922.5595703125	-753.0208129882812	358.2318420410156	948.6702270507812	-744.9972534179688	272.84375	933.7166748046875	-522.7376708984375	182.9560394287109	475.763671875	-514.8058471679688	222.2866516113281	602.7479248046875	-486.4854431152344	494.0499877929688	173.8386993408203	-493.193359375	334.6650390625	303.8767395019531	-496.2203369140625	364.1703796386719	42.69663619995117	-595.518798828125	432.9722900390625	77.24969482421875	-615.8040161132812	404.1284484863281	88.52187347412109	-506.80517578125	536.6607055664062	197.1492462158203	-550.8800659179688	428.7437133789062	458.422119140625	-781.7581787109375	404.3572387695312	719.9732055664062	-795.5348510742188	519.96875	43.54945755004883	-750.6991577148438	426.8663940429688	338.9456176757812	-779.4134521484375	322.300537109375	41.24377059936523	-790.7166748046875	351.1070556640625	38.88228607177734	-728.5640869140625	438.1869506835938	29.72750663757324	-810.568603515625	539.8692626953125	48.33081436157227	-683.4555053710938	nan	nan	nan	nan	nan	nan	
369	3.68	509.3750610351562	970.6961059570312	-627.328857421875	474.1980590820312	961.4212646484375	-502.9266967773438	495.27734375	1028.700805664062	-569.5324096679688	258.0674743652344	1208.983520507812	-614.1754150390625	495.8363037109375	1147.870483398438	-561.87451171875	439.8247375488281	1393.129516601562	-547.2959594726562	292.6995239257812	1335.158935546875	-592.7597045898438	507.9002685546875	1259.4453125	-608.725830078125	428.9628295898438	1352.738525390625	-449.1741638183594	333.4009094238281	1365.489379882812	-413.8308410644531	349.2151794433594	1250.667724609375	-341.2514953613281	353.5597534179688	1049.228149414062	-314.2126770019531	422.6821594238281	1038.862670898438	-362.6930236816406	288.3003234863281	794.6306762695312	-347.7969360351562	322.0404052734375	793.7964477539062	-286.2026977539062	348.5154724121094	944.6709594726562	-298.6996154785156	303.7696228027344	635.3739624023438	-338.0281677246094	333.4133911132812	724.4583129882812	-283.2880554199219	282.5106506347656	717.255126953125	-324.1578979492188	426.4529113769531	1390.976806640625	-716.4469604492188	456.3029174804688	1336.907104492188	-781.0386352539062	476.0721740722656	1090.805908203125	-884.215576171875	485.4841613769531	1058.258544921875	-793.8522338867188	376.0751953125	862.7326049804688	-945.0584106445312	433.2328491210938	868.3709106445312	-996.2960815429688	460.7590942382812	1030.493286132812	-919.0897216796875	385.2556762695312	698.6708984375	-997.4436645507812	364.1221618652344	769.6930541992188	-994.4622192382812	426.9673767089844	786.1332397460938	-1021.963500976562	384.7999877929688	1606.467895507812	-636.5452270507812	201.1420135498047	1590.65185546875	-540.0264892578125	222.201416015625	1599.150756835938	-638.7426147460938	381.6242370605469	1593.414184570312	-493.0770874023438	360.3552551269531	905.0467529296875	-429.6337890625	465.5999450683594	921.9688110351562	-757.01220703125	351.3297119140625	948.051025390625	-748.1918334960938	268.3416137695312	934.3528442382812	-524.97021484375	172.5581207275391	478.1912841796875	-516.0732421875	214.0654296875	605.5220947265625	-487.4121398925781	474.4869079589844	164.6248321533203	-505.3471069335938	319.4202270507812	300.3728332519531	-503.1199951171875	334.7844543457031	42.92597961425781	-606.6171264648438	405.0868835449219	73.71732330322266	-628.0654296875	379.6918029785156	84.82431030273438	-518.25537109375	516.727294921875	186.9346160888672	-563.7238159179688	425.9286499023438	457.9005737304688	-782.7394409179688	398.385498046875	719.1034545898438	-797.8005981445312	519.83642578125	43.82147598266602	-750.6209716796875	424.8998413085938	338.4346923828125	-779.9467163085938	322.232177734375	41.19496917724609	-790.6505737304688	351.0184631347656	38.71030426025391	-728.4447021484375	438.02978515625	29.86179542541504	-810.4414672851562	539.6683349609375	48.49120712280273	-683.29248046875	nan	nan	nan	nan	nan	nan	
370	3.69	503.3927307128906	970.783203125	-631.8909301757812	469.7249145507812	961.8140869140625	-507.0766296386719	489.9717407226562	1029.021118164062	-574.2198486328125	251.9874877929688	1208.944458007812	-615.9508056640625	490.5887145996094	1148.124267578125	-566.9439697265625	434.1074829101562	1393.234375	-551.6491088867188	286.3629150390625	1335.180541992188	-594.9662475585938	501.4389953613281	1259.641357421875	-614.204833984375	424.8513488769531	1352.979370117188	-453.4436645507812	329.8258972167969	1365.608276367188	-416.7071228027344	347.7110595703125	1251.383056640625	-343.9295349121094	354.1121215820312	1050.197143554688	-315.7876892089844	422.1954040527344	1039.931030273438	-365.7999572753906	288.6080932617188	795.5257568359375	-346.65576171875	323.8761291503906	794.7528686523438	-285.9830932617188	349.8039245605469	945.6126098632812	-299.6101989746094	303.7027587890625	636.2920532226562	-336.8620910644531	335.1690979003906	725.3973999023438	-283.1241455078125	282.8468933105469	718.3579711914062	-322.6858215332031	418.2721557617188	1391.329956054688	-720.4656982421875	446.9521179199219	1337.435791015625	-785.7061157226562	462.6320495605469	1092.354736328125	-892.0322265625	474.0655212402344	1058.905883789062	-802.3916015625	360.2537536621094	865.5292358398438	-953.1638793945312	416.0731201171875	871.7201538085938	-1005.7109375	446.0816345214844	1032.62646484375	-927.2205200195312	367.7044372558594	702.1587524414062	-1007.794128417969	346.7260131835938	773.1807250976562	-1003.435241699219	408.9394836425781	789.8538208007812	-1032.237548828125	377.2017822265625	1606.668212890625	-640.194580078125	195.1061248779297	1590.291137695312	-540.5960083007812	214.4683990478516	1598.857421875	-639.6761474609375	376.2536010742188	1593.557373046875	-496.6802368164062	356.5107727050781	906.0731201171875	-432.3843994140625	458.4972534179688	921.3566284179688	-760.8905639648438	344.3738403320312	947.3309936523438	-751.2110595703125	263.6791381835938	934.8419799804688	-527.1138305664062	162.6718902587891	480.3592529296875	-517.1658325195312	206.1470031738281	608.0779418945312	-488.2078552246094	453.8677368164062	155.0439300537109	-516.855224609375	303.9075622558594	296.6185607910156	-509.5256042480469	304.5826721191406	43.0191650390625	-615.7822875976562	376.0093383789062	69.89554595947266	-638.822998046875	354.4149780273438	81.09735107421875	-528.2916259765625	495.5562744140625	176.0640563964844	-576.1323852539062	423.1040344238281	457.3893127441406	-783.6964111328125	392.4655151367188	718.1778564453125	-799.9468994140625	519.6801147460938	44.09686660766602	-750.5337524414062	422.9182739257812	337.915283203125	-780.45654296875	322.1629028320312	41.14063262939453	-790.5950927734375	350.9219360351562	38.5306510925293	-728.328369140625	437.8666076660156	30.00129318237305	-810.3202514648438	539.4833374023438	48.66877746582031	-683.134033203125	nan	nan	nan	nan	nan	nan	
371	3.7	497.3108825683594	970.82763671875	-636.3274536132812	465.12744140625	962.1438598632812	-511.1422119140625	484.5290832519531	1029.2001953125	-578.7948608398438	245.7930145263672	1208.771362304688	-617.6256103515625	485.1967468261719	1148.27099609375	-571.8378295898438	428.2711791992188	1393.223754882812	-555.7960205078125	279.951171875	1335.066528320312	-597.0638427734375	494.8955688476562	1259.734130859375	-619.414794921875	420.5543518066406	1353.087890625	-457.5390319824219	326.0656127929688	1365.58154296875	-419.46875	345.9405517578125	1251.90185546875	-346.6036376953125	354.4351501464844	1050.983520507812	-317.5038757324219	421.4513244628906	1040.823974609375	-369.0229187011719	288.8594970703125	796.2096557617188	-345.7497253417969	325.5639038085938	795.5224609375	-286.0364379882812	350.8810424804688	946.377685546875	-300.73193359375	303.7048950195312	637.009033203125	-335.9073486328125	336.8115234375	726.1685180664062	-283.2086486816406	283.2135620117188	719.2499389648438	-321.4931030273438	410.0899963378906	1391.5439453125	-724.2687377929688	437.6690368652344	1337.811279296875	-790.0931396484375	449.3025817871094	1093.774047851562	-899.351318359375	462.5348815917969	1059.419189453125	-810.488525390625	344.3816223144531	868.3552856445312	-960.9117431640625	398.9620666503906	875.0126953125	-1014.607788085938	431.5361633300781	1034.642578125	-934.8616333007812	349.7737731933594	705.7426147460938	-1017.842895507812	329.1789245605469	776.7752075195312	-1012.105407714844	390.8359680175781	793.5786743164062	-1042.031127929688	369.61279296875	1606.7666015625	-643.6600341796875	189.0619659423828	1589.848388671875	-541.0933837890625	206.7571563720703	1598.48828125	-640.4986572265625	370.7979431152344	1593.577514648438	-500.0868835449219	352.580810546875	906.9451293945312	-435.0923461914062	451.3675842285156	920.7281494140625	-764.6510009765625	337.3691711425781	946.5249633789062	-754.0589599609375	258.8512878417969	935.1936645507812	-529.1747436523438	153.3722534179688	482.2446899414062	-518.1192626953125	198.5650939941406	610.3847045898438	-488.8949584960938	432.1889343261719	145.1988983154297	-527.6622924804688	288.17724609375	292.6712036132812	-515.4099731445312	273.671142578125	43.06167602539062	-623.0020751953125	345.8365173339844	65.88522338867188	-648.0331420898438	328.3911437988281	77.39597320556641	-536.88916015625	473.1023254394531	164.6620483398438	-588.0432739257812	420.2427062988281	456.8871154785156	-784.6255493164062	386.5743713378906	717.2023315429688	-801.9755249023438	519.504150390625	44.37328338623047	-750.4395751953125	420.9097595214844	337.3852233886719	-780.9458618164062	322.0888977050781	41.07586669921875	-790.552001953125	350.8152160644531	38.34299468994141	-728.216552734375	437.7017517089844	30.14340400695801	-810.2068481445312	539.3203125	48.86701202392578	-682.984130859375	nan	nan	nan	nan	nan	nan	
